<svg width="22" height="22" viewBox="0 0 22 22" fill="none" xmlns="http://www.w3.org/2000/svg">
<path d="M8.6747 20.4959V13.4303H13.3253V20.4959" stroke="white" stroke-width="1.5" stroke-linecap="round" stroke-linejoin="round"/>
<path d="M20.3166 9.68749L11.2953 1.23937C11.2145 1.16496 11.1087 1.12366 10.9989 1.12366C10.8891 1.12366 10.7833 1.16496 10.7025 1.23937L1.68345 9.68749C1.5937 9.76798 1.53042 9.87374 1.50192 9.99087C1.47342 10.108 1.48103 10.231 1.52376 10.3437C1.56633 10.457 1.64266 10.5545 1.74242 10.6229C1.84219 10.6914 1.96058 10.7276 2.08157 10.7266H4.00001V20.6578H18.0175L18 10.7244H19.9184C20.0392 10.7255 20.1574 10.6897 20.2571 10.6216C20.3569 10.5536 20.4333 10.4566 20.4763 10.3437V10.3437C20.519 10.231 20.5266 10.108 20.4981 9.99087C20.4696 9.87374 20.4063 9.76798 20.3166 9.68749V9.68749Z" stroke="white" stroke-width="1.5" stroke-linecap="round" stroke-linejoin="round"/>
</svg>
