<svg width="17" height="23" viewBox="0 0 17 23" fill="none" xmlns="http://www.w3.org/2000/svg">
<path d="M8.14442 3.34167C5.4961 3.34167 3.34145 5.49624 3.34145 8.14456C3.34145 10.7929 5.4961 12.9475 8.14442 12.9475C10.7927 12.9475 12.9474 10.7929 12.9474 8.14456C12.9474 5.49624 10.7927 3.34167 8.14442 3.34167ZM8.14442 11.6555C6.20843 11.6555 4.63331 10.0805 4.63331 8.14448C4.63331 6.20849 6.20843 4.63354 8.14442 4.63354C10.0804 4.63354 11.6555 6.20858 11.6555 8.14456C11.6555 10.0805 10.0805 11.6555 8.14442 11.6555Z" fill="white"/>
<path d="M8.14442 0C3.65356 0 0 3.65356 0 8.14442C0 10.7343 2.17205 14.593 3.46676 16.6624C4.31861 18.024 5.23403 19.3198 6.04428 20.3111C7.34484 21.9022 7.81035 22.0353 8.14451 22.0353C8.48366 22.0353 8.92316 21.9021 10.2197 20.3102C11.0317 19.3129 11.9476 18.0179 12.7986 16.6635C14.1021 14.5889 16.2889 10.7234 16.2889 8.14433C16.2889 3.65356 12.6354 0 8.14442 0ZM11.903 15.6576C10.2325 18.3691 8.69889 20.2013 8.13676 20.669C7.57169 20.2157 6.06297 18.427 4.36917 15.6662C2.41354 12.4783 1.29195 9.73669 1.29195 8.14442C1.29186 4.36589 4.36589 1.29186 8.14442 1.29186C11.9229 1.29186 14.997 4.36589 14.997 8.14442C14.9971 9.72756 13.8693 12.466 11.903 15.6576Z" fill="white"/>
</svg>
